<?xml version="1.0" encoding="utf-8"?>
<?xml-stylesheet type="text/xsl" href="rss1.xsl"?>
<rss version="2.0" xmlns:atom="http://www.w3.org/2005/Atom" xmlns:content="http://purl.org/rss/1.0/modules/content/" xmlns:dc="http://purl.org/dc/elements/1.1/" xmlns:media="http://search.yahoo.com/mrss/">
<channel>
 <title>Getty</title>
 <link>http://www.gettyimg.com/</link>
 <atom:link href="http://www.gettyimg.com/" rel="self" type="application/rss+xml" />

 
                <item>
                <title><![CDATA[【MASTER &amp; MASTER RIP】MASTER - Krewella - Drive Away (Master 1920)]]></title>
                <link><![CDATA[https://sharemania.us/threads/krewella-drive-away-master-1920.230637/]]></link>
                <description><![CDATA[<article>
<blockquote class="messageText SelectQuoteContainer ugc baseHtml">
<div style="text-align: center"><img src="https://i.imgur.com/tQTjGZp.gif" class="bbCodeImage LbImage" alt="[​IMG]" data-url="https://i.imgur.com/tQTjGZp.gif" style=""><br>
​</div>
<div class="ToggleTriggerAnchor bbCodeSpoilerContainer">
<button type="button" class="button bbCodeSpoilerButton ToggleTrigger Tooltip JsOnly" data-target="> .SpoilerTarget"><span>Spoiler: <span class="SpoilerTitle">MASTER</span></span></button>
<div class="SpoilerTarget bbCodeSpoilerText">
<div class="bbCodeBlock bbCodeCode">
<div class="type">Code:</div>
<pre>Format                                   : MPEG-4
Format profile                           : QuickTime
Codec ID                                 : qt   0000.02 (qt  )
File size                                : 1.41 GiB
Duration                                 : 3 min 54 s
Overall bit rate mode                    : Variable
Overall bit rate                         : 51.5 Mb/s
Encoded date                             : UTC 2022-03-07 17:41:11
Tagged date                              : UTC 2022-03-07 17:41:11
Writing application                      : Blackmagic Design DaVinci Resolve Studio

Video
ID                                       : 1
Format                                   : AVC
Format/Info                              : Advanced Video Codec
Format profile                           : High@L5
Format settings                          : CABAC / 2 Ref Frames
Format settings, CABAC                   : Yes
Format settings, Reference frames        : 2 frames
Codec ID                                 : avc1
Codec ID/Info                            : Advanced Video Coding
Duration                                 : 3 min 54 s
Bit rate mode                            : Variable
Bit rate                                 : 50.0 Mb/s
Maximum bit rate                         : 768 kb/s
Width                                    : 2 560 pixels
Height                                   : 1 920 pixels
Display aspect ratio                     : 4:3
Frame rate mode                          : Constant
Frame rate                               : 23.976 (24000/1001) FPS
Color space                              : YUV
Chroma subsampling                       : 4:2:0
Bit depth                                : 8 bits
Scan type                                : Progressive
Bits/(Pixel*Frame)                       : 0.424
Stream size                              : 1.36 GiB (97%)
Encoded date                             : UTC 2022-03-07 17:41:11
Tagged date                              : UTC 2022-03-07 17:41:11
Color range                              : Limited
Color primaries                          : BT.709
Transfer characteristics                 : BT.709
Matrix coefficients                      : BT.709
Codec configuration box                  : avcC

Audio
ID                                       : 2
Format                                   : PCM
Format settings                          : Little / Signed
Codec ID                                 : lpcm
Duration                                 : 3 min 54 s
Bit rate mode                            : Constant
Bit rate                                 : 1 536 kb/s
Channel(s)                               : 2 channels
Channel layout                           : L R
Sampling rate                            : 48.0 kHz
Bit depth                                : 16 bits
Stream size                              : 42.9 MiB (3%)
Default                                  : Yes
Alternate group                          : 1
Encoded date                             : UTC 2022-03-07 17:41:11
Tagged date                              : UTC 2022-03-07 17:41:11

Other
ID                                       : 3
Type                                     : Time code
Format                                   : QuickTime TC
Duration                                 : 3 min 54 s
Frame rate                               : 23.976 (24000/1001) FPS
Time code of first frame                 : 01:00:00:00
Time code, striped                       : Yes
Language                                 : English
Default                                  : No
Encoded date                             : UTC 2022-03-07 17:41:11
Tagged date                              : UTC 2022-03-07 17:41:11</pre>
</div><div style="text-align: center">​</div></div>
</div><div style="text-align: center"><br>
<div class="bbCodeBlock bbCodeVfcHH HiddenContent">
<div class="attribution type">Hidden Content:</div>
<blockquote>You must reply before you can see the hidden data contained here.</blockquote>
</div></div>
<div class="messageTextEndMarker">&nbsp;</div>
</blockquote>
</article>]]></description>
                <author><![CDATA[fstambuk]]></author>
                </item>

                
                <item>
                <title><![CDATA[【PRORES HD】Birdy - Island Lights (ProRes 1080)]]></title>
                <link><![CDATA[https://sharemania.us/threads/birdy-island-lights-prores-1080.230636/]]></link>
                <description><![CDATA[<article>
<blockquote class="messageText SelectQuoteContainer ugc baseHtml">
<div style="text-align: center"><img src="https://i.imgur.com/flcbnQ7.gif" class="bbCodeImage LbImage" alt="[​IMG]" data-url="https://i.imgur.com/flcbnQ7.gif" style=""><br>
​</div>
<div class="ToggleTriggerAnchor bbCodeSpoilerContainer">
<button type="button" class="button bbCodeSpoilerButton ToggleTrigger Tooltip JsOnly" data-target="> .SpoilerTarget"><span>Spoiler: <span class="SpoilerTitle">ProRes</span></span></button>
<div class="SpoilerTarget bbCodeSpoilerText">
<div class="bbCodeBlock bbCodeCode">
<div class="type">Code:</div>
<pre>Format                                   : MPEG-4
Format profile                           : QuickTime
Codec ID                                 : qt   2005.03 (qt  )
File size                                : 3.93 GiB
Duration                                 : 4 min 31 s
Overall bit rate mode                    : Variable
Overall bit rate                         : 124 Mb/s
Encoded date                             : UTC 2020-09-08 11:35:28
Tagged date                              : UTC 2020-09-01 11:41:20
Writing library                          : Apple QuickTime
TIM                                      : 10:00:00:00
TSC                                      : 25
TSZ                                      : 1

Video
ID                                       : 1
Format                                   : ProRes
Format version                           : Version 0
Format profile                           : 422
Codec ID                                 : apcn
Duration                                 : 4 min 31 s
Bit rate mode                            : Variable
Bit rate                                 : 123 Mb/s
Width                                    : 1 920 pixels
Height                                   : 1 080 pixels
Display aspect ratio                     : 16:9
Frame rate mode                          : Constant
Frame rate                               : 25.000 FPS
Color space                              : YUV
Chroma subsampling                       : 4:2:2
Scan type                                : Progressive
Bits/(Pixel*Frame)                       : 2.370
Stream size                              : 3.88 GiB (99%)
Writing library                          : adb0
Language                                 : English
Encoded date                             : UTC 2020-09-08 11:35:28
Tagged date                              : UTC 2020-09-08 11:35:28
Color primaries                          : BT.709
Transfer characteristics                 : BT.709
Matrix coefficients                      : BT.709

Audio
ID                                       : 2
Format                                   : PCM
Format settings                          : Little / Signed
Codec ID                                 : sowt
Duration                                 : 4 min 31 s
Bit rate mode                            : Constant
Bit rate                                 : 1 536 kb/s
Channel(s)                               : 2 channels
Channel layout                           : L R
Sampling rate                            : 48.0 kHz
Bit depth                                : 16 bits
Stream size                              : 49.7 MiB (1%)
Language                                 : English
Encoded date                             : UTC 2020-09-08 11:35:28
Tagged date                              : UTC 2020-09-08 11:35:28

Other
ID                                       : 3
Type                                     : Time code
Format                                   : QuickTime TC
Duration                                 : 4 min 31 s
Frame rate                               : 25.000 FPS
Time code of first frame                 : 10:00:00:00
Time code, striped                       : Yes
Language                                 : English
Encoded date                             : UTC 2020-09-08 11:35:28
Tagged date                              : UTC 2020-09-08 11:35:28</pre>
</div><div style="text-align: center">​</div></div>
</div><div style="text-align: center"><br>
<div class="bbCodeBlock bbCodeVfcHH HiddenContent">
<div class="attribution type">Hidden Content:</div>
<blockquote>You must reply before you can see the hidden data contained here.</blockquote>
</div></div>
<div class="messageTextEndMarker">&nbsp;</div>
</blockquote>
</article>]]></description>
                <author><![CDATA[fstambuk]]></author>
                </item>

                </channel></rss>